<?xml version="1.0" encoding="utf-8"?>
<!-- Generator: Adobe Adobe Illustrator 24.2.0, SVG Export Plug-In . SVG Version: 6.00 Build 0)  -->
<svg version="1.1" id="Layer_2" xmlns="http://www.w3.org/2000/svg" xmlns:xlink="http://www.w3.org/1999/xlink" x="0px" y="0px"
	 width="1220px" height="870px" viewBox="0 0 1220 870" style="enable-background:new 0 0 1220 870;" xml:space="preserve">
<style type="text/css">
	.st0{fill:#07521B;}
	.st1{fill:#FFFFFF;}
	.st2{fill:none;stroke:#FFD738;stroke-width:12;stroke-miterlimit:10;}
</style>
<ellipse class="st0" cx="610" cy="435" rx="377" ry="279"/>
<g>
	<path class="st1" d="M339.45,426.53c0-39.95,26.17-70.9,63.38-70.9c31.93,0,55.22,27.25,55.22,62.96
		c0,39.15-25.45,69.31-62.18,69.31C363.45,487.91,339.45,464.1,339.45,426.53z M436.43,431.83c0-33.07-18-62.7-42.01-62.7
		c-21.37,0-33.13,19.58-33.13,44.71c0,34.66,17.52,61.38,42.01,61.38C423.71,475.21,436.43,457.22,436.43,431.83z"/>
	<path class="st1" d="M602.56,457.75c2.88,16.4,12.72,14.55,12.72,22.49c0,3.97-3.36,5.03-9.36,5.03h-25.45
		c-5.76,0-9.6-1.06-9.6-5.29c0-7.67,12.48-5.82,9.84-23.02l-6.96-43.92c-3.12-20.9-7.2-41.54-29.05-41.27
		c-15.6,0.26-32.17,15.61-32.17,47.88v30.69c0,25.4,11.04,20.64,11.04,29.9c0,3.97-3.36,5.03-9.36,5.03h-25.69
		c-5.52,0-9.6-1.06-9.6-5.29c0-9,11.76-4.23,11.76-29.63v-53.18c0-9-0.96-15.61-7.44-19.84c-2.64-1.85-4.32-3.44-4.32-6.08
		c0-2.91,1.2-4.5,6.96-7.41c8.16-4.23,16.32-7.14,19.69-7.41c3.12,0,4.8,1.32,4.8,5.82l-0.24,22.49c9.6-19.58,26.41-29.1,42.25-29.1
		c24.01,0,36.49,14.81,42.73,55.56L602.56,457.75z"/>
	<path class="st1" d="M739.64,339.76l-0.24,110.85c0,19.84,14.4,14.02,14.4,21.69c0,2.65-1.92,5.03-6.24,7.67
		c-6,3.7-15.36,7.94-21.13,7.94s-7.92-4.76-8.16-13.76l-0.24-9.52c-8.4,13.23-23.05,23.55-42.01,23.28
		c-31.45-0.26-51.37-27.25-51.37-61.11c0-41.27,28.57-71.17,59.78-71.17c11.76,0,24.25,3.97,33.37,12.7v-28.57
		c0-23.02-11.76-18.52-11.76-26.72c0-2.65,0.96-3.97,6.72-6.88c10.8-5.56,18.96-8.47,22.57-8.73c2.88-0.26,4.56,1.06,4.56,5.82
		L739.64,339.76z M717.55,437.65v-13.23c-0.48-10.85-1.92-24.6-7.44-34.66c-6.96-13.76-17.29-21.16-30.97-21.16
		c-20.65,0-33.13,19.31-33.13,45.77c0,38.36,20.41,56.62,38.17,56.62C704.11,470.98,715.87,453.25,717.55,437.65z"/>
	<path class="st1" d="M886.56,472.04c0,6.61-9.36,15.08-20.17,15.08c-11.28,0-14.4-7.67-16.56-20.37
		c-10.08,13.76-26.65,21.16-40.57,21.16c-29.29,0-46.09-17.99-46.09-40.48c0-25.4,20.65-42.86,49.93-42.86
		c10.08,0,16.8,1.06,25.93,3.44c-4.8-21.16-7.92-36.24-28.81-36.24c-13.68,0-22.57,4.76-32.65,11.11c-4.56,3.17-8.4-0.79-5.28-6.08
		c5.76-9.26,23.05-20.9,44.89-20.9c26.41,0,36.73,18.25,41.29,41.27l11.04,57.41c2.64,13.49,7.68,14.29,12.24,14.29
		C884.4,468.86,886.56,469.13,886.56,472.04z M846.71,449.02c-0.96-6.08-2.88-12.96-5.04-24.6c-0.96-6.35-16.8-8.73-24.25-8.73
		c-21.13,0-32.41,11.11-32.17,28.84c0.72,17.2,11.52,30.16,29.53,30.16C831.34,474.68,848.63,460.66,846.71,449.02z"/>
</g>
<path class="st2" d="M313.29,607.14c14.59-15.59,206.75-2.55,231.11-54.67c7.35,13.58,15.71,27.32,30.31,37.99
	c14.6,10.67,36.78,17.8,57.97,14.8c20.31-2.87,35.23-13.95,50.64-23.22c36.58-22.01,79.36-41.35,128.39-38.06
	c49.03,3.29,77.12,29.06,103.41,54.92"/>
</svg>
