<?xml version="1.0" encoding="utf-8"?>
<!-- Generator: Adobe Adobe Illustrator 24.2.0, SVG Export Plug-In . SVG Version: 6.00 Build 0)  -->
<svg version="1.1" id="Layer_2" xmlns="http://www.w3.org/2000/svg" xmlns:xlink="http://www.w3.org/1999/xlink" x="0px" y="0px"
	 width="1220px" height="870px" viewBox="0 0 1220 870" style="enable-background:new 0 0 1220 870;" xml:space="preserve">
<style type="text/css">
	.st0{fill:#FFFFFF;}
	.st1{fill:#07521B;}
	.st2{clip-path:url(#SVGID_2_);fill:none;stroke:#FFD738;stroke-width:11.8291;stroke-miterlimit:10;}
</style>
<g>
	<ellipse class="st0" cx="610" cy="435" rx="383.27" ry="283.64"/>
	<g>
		<ellipse class="st1" cx="610" cy="435" rx="371.63" ry="275.03"/>
		<g>
			<defs>
				<ellipse id="SVGID_1_" cx="610" cy="435" rx="371.63" ry="275.03"/>
			</defs>
			<clipPath id="SVGID_2_">
				<use xlink:href="#SVGID_1_"  style="overflow:visible;"/>
			</clipPath>
			<path class="st2" d="M317.52,604.69c14.39-15.37,203.81-2.51,227.82-53.89c7.24,13.39,15.49,26.93,29.88,37.44
				c14.39,10.51,36.26,17.55,57.14,14.59c20.02-2.83,34.72-13.75,49.91-22.89c36.06-21.7,78.23-40.77,126.56-37.52
				c48.33,3.25,76.02,28.65,101.94,54.14"/>
		</g>
		<g>
			<path class="st0" d="M459.97,418.87c0,39.38-22.01,68.07-51.35,68.33c-13.96,0.26-28.4-5.48-37.39-13.82l0.24,28.95
				c0,25.04,10.89,20.34,10.89,29.47c0,3.91-3.31,4.96-9.23,4.96H347.8c-5.44,0-9.23-1.04-9.23-4.96c0-9.13,11.36-4.43,11.36-29.47
				l-0.47-105.62c0-8.61-0.95-15.13-7.1-19.3c-2.6-1.83-4.26-3.39-4.26-6c0-3.13,1.18-4.69,6.86-7.56
				c8.05-3.91,16.09-6.78,19.4-7.04c3.08-0.26,4.73,1.04,4.73,5.74l-0.24,21.12c7.57-14.08,21.77-26.86,43.07-26.86
				C441.51,356.8,459.97,383.14,459.97,418.87z M438.67,429.3c0-37.55-16.56-56.07-34.55-56.07c-21.77,0-32.89,22.69-32.89,41.73
				v18.26c0,27.12,20.83,42.51,37.39,42.25C429.21,475.2,438.67,454.34,438.67,429.3z"/>
			<path class="st0" d="M563.62,374.8c0,6.78-4.02,13.04-9.47,13.3c-9.94,0.26-9.47-11.21-20.35-11.21
				c-10.41,0-20.35,16.17-20.35,39.12v34.16c0,25.04,10.89,20.34,10.89,29.47c0,3.91-3.31,4.96-9.23,4.96h-25.32
				c-5.44,0-9.47-1.04-9.47-5.22c0-8.87,11.6-4.17,11.6-29.21v-52.42c0-8.87-0.95-15.39-7.34-19.56c-2.6-1.83-4.26-3.39-4.26-6
				c0-2.87,1.18-4.43,6.86-7.3c8.05-4.17,16.09-7.04,19.41-7.3c3.08,0,4.73,1.3,4.73,5.74l-0.24,21.12
				c7.34-15.39,20.12-27.64,34.08-27.64C557.94,356.8,563.62,365.67,563.62,374.8z"/>
			<path class="st0" d="M691.65,471.55c0,6.52-9.23,14.86-19.88,14.86c-11.12,0-14.2-7.56-16.33-20.08
				c-9.94,13.56-26.27,20.86-39.99,20.86c-28.87,0-45.44-17.73-45.44-39.9c0-25.04,20.35-42.25,49.22-42.25
				c9.94,0,16.57,1.04,25.56,3.39c-4.73-20.86-7.81-35.73-28.4-35.73c-13.49,0-22.24,4.69-32.18,10.95c-4.5,3.13-8.28-0.78-5.21-6
				c5.68-9.13,22.72-20.6,44.25-20.6c26.03,0,36.21,17.99,40.7,40.68l10.89,56.59c2.6,13.3,7.57,14.08,12.07,14.08
				C689.52,468.42,691.65,468.68,691.65,471.55z M652.36,448.86c-0.95-6-2.84-12.78-4.97-24.25c-0.95-6.26-16.56-8.61-23.9-8.61
				c-20.82,0-31.95,10.95-31.71,28.43c0.71,16.95,11.36,29.73,29.11,29.73C637.22,474.16,654.25,460.34,652.36,448.86z"/>
			<path class="st0" d="M717.91,398.53c0-22.69-11.6-18.26-11.6-26.34c0-2.61,0.95-3.91,6.63-6.78c10.65-5.48,18.7-8.35,22.01-8.61
				c3.08-0.26,4.73,1.04,4.73,5.74l-0.24,35.99v51.64c0,25.04,11.12,20.34,11.12,29.47c0,3.91-3.55,4.96-9.23,4.96h-25.32
				c-5.68,0-9.47-1.04-9.47-5.22c0-8.87,11.36-4.17,11.36-29.21V398.53z M709.39,324.21c0.47-9.39,11.12-20.34,20.59-19.04
				c6.39,0.52,10.89,7.04,10.65,13.56c-0.71,9.13-11.36,19.3-20.59,18.52C713.65,336.72,708.92,331.51,709.39,324.21z"/>
			<path class="st0" d="M889.48,471.55c0,6.52-9.23,14.86-19.88,14.86c-11.12,0-14.2-7.56-16.33-20.08
				c-9.94,13.56-26.27,20.86-39.99,20.86c-28.87,0-45.44-17.73-45.44-39.9c0-25.04,20.35-42.25,49.22-42.25
				c9.94,0,16.57,1.04,25.56,3.39c-4.73-20.86-7.81-35.73-28.4-35.73c-13.49,0-22.25,4.69-32.18,10.95c-4.5,3.13-8.28-0.78-5.21-6
				c5.68-9.13,22.72-20.6,44.25-20.6c26.03,0,36.21,17.99,40.7,40.68l10.89,56.59c2.6,13.3,7.57,14.08,12.07,14.08
				C887.35,468.42,889.48,468.68,889.48,471.55z M850.2,448.86c-0.95-6-2.84-12.78-4.97-24.25c-0.95-6.26-16.56-8.61-23.9-8.61
				c-20.83,0-31.95,10.95-31.71,28.43c0.71,16.95,11.36,29.73,29.11,29.73C835.05,474.16,852.09,460.34,850.2,448.86z"/>
		</g>
	</g>
</g>
</svg>
